<?xml version="1.0" encoding="UTF-8"?>
<svg version="1.1" xmlns="http://www.w3.org/2000/svg" width="194" height="179">
<path d="M0 0 C64.02 0 128.04 0 194 0 C194 59.07 194 118.14 194 179 C129.98 179 65.96 179 0 179 C0 119.93 0 60.86 0 0 Z " fill="#BF522B" transform="translate(0,0)"/>
<path d="M0 0 C25.08 0 50.16 0 76 0 C76 0.33 76 0.66 76 1 C75.3915625 1.12375 74.783125 1.2475 74.15625 1.375 C52.09571832 6.56571334 32.22483798 20.95816889 20.16992188 40.03027344 C7.62155351 61.15720081 3.12588171 85.88843591 9 110 C15.991822 134.45722351 30.33024668 153.76441661 52.66723633 166.25195312 C73.7574305 177.57354368 98.25057167 180.64595926 121.375 174.03515625 C145.71060458 165.96855518 164.34261844 150.94199351 176.08447266 127.89746094 C185.99752576 107.35232794 188.75554083 83.03504932 181.73632812 61.08691406 C177.84182075 50.04903308 172.47265375 40.03537602 165 31 C164.30132812 30.13890625 163.60265625 29.2778125 162.8828125 28.390625 C150.71403876 14.09989427 133.94625039 5.67094188 116 1 C116 0.67 116 0.34 116 0 C141.74 0 167.48 0 194 0 C194 59.07 194 118.14 194 179 C129.98 179 65.96 179 0 179 C0 119.93 0 60.86 0 0 Z " fill="#311B13" transform="translate(0,0)"/>
<path d="M0 0 C25.08 0 50.16 0 76 0 C76 2.97 76 5.94 76 9 C65.11 9 54.22 9 43 9 C43.495 12.96 43.495 12.96 44 17 C44.56074219 16.67773438 45.12148437 16.35546875 45.69921875 16.0234375 C50.19034975 14.02568483 55.47104035 14.13037633 60.1015625 15.72265625 C64.01877811 17.78127807 66.49941469 19.85132298 68 24 C68.76830025 30.10798701 68.58807406 35.72346099 65.4765625 41.140625 C62.59433264 44.77009963 58.98394983 47.65218426 55 50 C54.01 50 53.02 50 52 50 C48 43.25 48 43.25 48 41 C49.49609375 39.78125 49.49609375 39.78125 51.4375 38.5 C54.22531847 36.7134637 54.22531847 36.7134637 56 34 C56.04022391 31.6670134 56.04320247 29.33293334 56 27 C53.30966436 25.88187991 53.30966436 25.88187991 50 26 C47.24693416 27.82870312 45.55529264 30.10534485 44 33 C43.1491662 37.31803568 43.11501414 41.54621623 43.125 45.9375 C43.104375 47.09830078 43.08375 48.25910156 43.0625 49.45507812 C43.01561938 52.30307578 43.00426085 55.15161971 43 58 C39.37 58 35.74 58 32 58 C31.67 54.37 31.34 50.74 31 47 C29.515 47.495 29.515 47.495 28 48 C22.67590516 48.84458533 18.79890382 48.30343031 14.1875 45.4375 C9.40205436 41.84841577 6.54801835 38.57654083 5.62890625 32.578125 C5.32713594 26.5427188 6.27945159 22.76993386 10 18 C14.24847464 14.2908395 18.36214263 13.47998412 23.91015625 13.7265625 C26.50349183 14.06587744 28.67856743 14.80184125 31 16 C31.33 13.69 31.66 11.38 32 9 C21.44 9 10.88 9 0 9 C0 6.03 0 3.06 0 0 Z " fill="#FDFAF9" transform="translate(56,60)"/>
<path d="M0 0 C1.90234375 0.5546875 1.90234375 0.5546875 4.90234375 2.5546875 C5.46971964 9.70362367 5.46971964 9.70362367 2.90234375 13.5546875 C-0.15258446 14.35598015 -2.047432 14.84046377 -5.09765625 14.5546875 C-8.09765625 12.4921875 -8.09765625 12.4921875 -10.09765625 9.5546875 C-10.77234528 5.88138054 -10.55332737 4.29515307 -8.59765625 1.1171875 C-5.39861711 -0.88221196 -3.62401671 -0.57038267 0 0 Z " fill="#C25833" transform="translate(83.09765625,83.4453125)"/>
</svg>
